# xmcd CD database file
# Copyright (C) 1993-1998 Ti Kan
#
# Track frame offsets:
#	150
#	10303
#	22251
#	40143
#	66336
#	85914
#	92369
#	106234
#	127067
#	133650
#	144105
#	161436
#	186813
#	210963
#
# Disc length: 2984 seconds
#
# Revision: 1
# Processed by: cddbd v1.4b41PL1 Copyright (c) Steve Scherf et al.
# Submitted via: CDValet v3.30 - Copyright (c) 1997 Greg Leichner
#
DISCID=b60ba60e
DTITLE=Mudpuppy - White Bread and Hot Sauce!
DYEAR=1900
DGENRE=
TTITLE0=Mudpuppy Part I
TTITLE1=Why Dont Cha
TTITLE2=Song For My Friend
TTITLE3=Bloodshot Eyes
TTITLE4=Simply Beautiful
TTITLE5=Spoondango
TTITLE6=Goin Back To New Orleans
TTITLE7=Let Me In
TTITLE8=Blah...Blah...Blah
TTITLE9=Beads
TTITLE10=Brown Sugar
TTITLE11=White Bread and Hot Sauce
TTITLE12=Pain In My Back
TTITLE13=Mudpuppy Part II
EXTD=
EXTT0=
EXTT1=
EXTT2=
EXTT3=
EXTT4=
EXTT5=
EXTT6=
EXTT7=
EXTT8=
EXTT9=
EXTT10=
EXTT11=
EXTT12=
EXTT13=
PLAYORDER=
